<?xml version="1.0" standalone="no"?>
<!DOCTYPE svg PUBLIC "-//W3C//DTD SVG 20010904//EN"
 "http://www.w3.org/TR/2001/REC-SVG-20010904/DTD/svg10.dtd">
<svg version="1.0" xmlns="http://www.w3.org/2000/svg"
 width="300.000000pt" height="163.000000pt" viewBox="0 0 300.000000 163.000000"
 preserveAspectRatio="xMidYMid meet">
<metadata>
Created by potrace 1.10, written by Peter Selinger 2001-2011
</metadata>
<g transform="translate(0.000000,163.000000) scale(0.100000,-0.100000)"
fill="#000000" stroke="none">
<path d="M290 1073 c-37 -13 -40 -32 -40 -268 0 -192 3 -234 16 -253 l15 -22
1215 0 c819 0 1222 3 1235 10 18 10 19 24 19 260 0 246 0 249 -22 264 -20 14
-152 16 -1223 15 -660 0 -1207 -3 -1215 -6z m2416 -44 c10 -8 13 -63 13 -230
0 -197 -1 -220 -17 -228 -10 -5 -497 -9 -1204 -10 -1177 0 -1187 0 -1201 20
-11 15 -15 67 -16 223 -2 224 0 231 64 238 17 1 552 2 1189 0 807 -1 1163 -6
1172 -13z"/>
<path d="M1256 979 l-26 -20 0 -153 c0 -109 4 -157 13 -170 11 -15 30 -18 136
-18 144 0 155 6 153 74 -1 29 6 60 23 92 30 59 32 90 7 108 -11 7 -24 29 -31
49 -15 48 -41 57 -157 58 -78 1 -95 -2 -118 -20z m252 -69 c2 -38 -2 -61 -13
-75 -15 -19 -15 -16 -13 43 l3 62 -102 0 -103 0 0 -137 0 -138 97 0 98 0 12
35 c15 43 11 48 -11 15 -16 -25 -36 -34 -36 -16 0 5 18 39 40 77 22 38 41 73
44 79 2 6 8 6 16 -2 10 -9 8 -19 -11 -49 -17 -28 -23 -53 -23 -98 l-1 -61
-125 0 -125 0 -3 149 c-2 103 1 153 9 162 9 11 37 14 128 12 l116 -3 3 -55z
m-78 -10 c0 -6 -30 -10 -71 -10 -44 0 -68 4 -64 10 3 6 35 10 71 10 36 0 64
-4 64 -10z m40 -40 c0 -6 -35 -10 -85 -10 -50 0 -85 4 -85 10 0 6 35 10 85 10
50 0 85 -4 85 -10z m-40 -40 c0 -6 -28 -10 -65 -10 -37 0 -65 4 -65 10 0 6 28
10 65 10 37 0 65 -4 65 -10z m40 -40 c0 -6 -35 -10 -84 -10 -47 0 -88 5 -91
10 -4 6 27 10 84 10 54 0 91 -4 91 -10z m-42 -31 c-2 -6 -7 -10 -11 -10 -4 1
-34 1 -68 1 -37 0 -58 4 -54 10 9 14 138 13 133 -1z"/>
<path d="M1842 906 c-18 -6 -37 -18 -42 -26 -8 -13 -10 -13 -10 1 0 35 -102
42 -120 10 -11 -21 -14 -132 -4 -168 9 -33 51 -31 64 2 5 14 14 25 20 25 6 0
9 4 6 9 -3 5 3 11 14 14 15 4 20 -2 25 -25 8 -33 56 -61 93 -53 31 6 62 28 62
45 0 8 6 4 13 -10 11 -22 20 -25 75 -27 60 -3 62 -2 68 25 10 45 12 48 13 16
1 -39 12 -44 106 -44 57 0 74 3 79 16 11 29 7 169 -6 182 -17 17 -45 15 -67
-7 -18 -18 -18 -18 -30 0 -13 21 -51 25 -69 7 -7 -7 -13 -37 -14 -67 l-2 -56
-3 52 c-5 61 -26 83 -83 83 -43 0 -55 -8 -65 -40 l-9 -25 -5 24 c-9 33 -64 52
-109 37z m89 -43 c28 -74 -1 -153 -56 -153 -42 0 -65 33 -65 93 0 29 6 60 13
69 26 34 94 28 108 -9z m-151 12 c0 -10 -10 -15 -30 -15 -23 0 -30 -4 -30 -20
0 -15 7 -20 25 -20 16 0 25 -6 25 -15 0 -9 -9 -15 -25 -15 -22 0 -25 -4 -25
-40 0 -33 -3 -40 -20 -40 -19 0 -20 7 -20 90 l0 90 50 0 c38 0 50 -4 50 -15z
m298 3 c15 -15 16 -94 2 -103 -7 -4 -7 -12 0 -25 14 -26 12 -40 -5 -40 -9 0
-21 11 -27 25 -15 32 -28 32 -28 -1 0 -19 -4 -25 -17 -22 -15 3 -18 16 -19 91
l-2 87 42 0 c23 0 47 -5 54 -12z m124 -40 l14 -53 15 50 c11 38 20 51 37 53
21 3 22 1 22 -87 0 -74 -3 -91 -15 -91 -11 0 -15 13 -16 53 l-1 52 -15 -52
c-18 -62 -39 -69 -49 -15 -11 62 -23 72 -21 17 2 -40 -1 -50 -15 -53 -16 -3
-18 6 -18 87 0 89 1 91 24 91 19 0 25 -8 38 -52z"/>
<path d="M1854 847 c-3 -8 -4 -32 -2 -53 2 -31 7 -39 23 -39 17 0 20 7 20 50
0 39 -4 50 -18 53 -9 2 -20 -3 -23 -11z"/>
<path d="M2020 830 c0 -20 5 -30 15 -30 21 0 30 27 15 45 -19 23 -30 18 -30
-15z"/>
<path d="M380 897 c-28 -14 -41 -53 -28 -81 6 -10 7 -33 4 -50 -5 -25 -2 -37
14 -51 23 -21 92 -25 98 -6 5 14 39 14 47 1 3 -5 42 -10 86 -10 73 0 80 2 88
22 8 21 8 21 13 1 5 -18 14 -20 77 -21 39 0 71 4 71 9 0 6 7 6 19 0 10 -6 42
-9 72 -8 52 2 54 3 54 30 -1 18 4 27 15 27 10 0 11 3 4 8 -8 5 -9 20 -4 47 4
22 9 32 10 23 2 -17 4 -24 9 -45 2 -5 6 1 11 12 6 15 9 9 9 -27 1 -62 9 -78
37 -78 30 0 44 27 44 83 0 27 6 49 15 57 20 16 19 56 -1 64 -33 13 -112 6
-129 -11 -14 -13 -18 -14 -25 -3 -6 9 -28 14 -62 15 -44 0 -53 -3 -56 -19 -2
-11 -10 -26 -18 -33 -7 -8 -11 -21 -8 -31 5 -14 4 -15 -5 -2 -6 8 -11 22 -11
31 0 9 -8 27 -18 39 -14 18 -25 22 -45 16 -17 -4 -27 -13 -27 -24 0 -10 -7
-27 -16 -38 -15 -18 -15 -18 -9 10 5 26 4 28 -9 17 -14 -12 -16 -10 -16 8 0
31 -48 41 -70 13 -17 -21 -18 -21 -35 -2 -20 22 -55 26 -73 8 -7 -7 -13 -30
-14 -52 -1 -41 -1 -41 -5 -6 -8 64 -54 87 -113 57z m65 -9 c26 -12 33 -32 15
-43 -6 -4 -18 -1 -26 6 -10 8 -18 9 -25 2 -7 -7 1 -17 26 -31 42 -26 51 -45
37 -77 -15 -33 -55 -42 -88 -20 -24 16 -25 18 -10 33 12 13 19 13 28 4 16 -16
38 -15 38 2 0 7 -14 19 -30 26 -66 27 -62 86 7 109 1 1 14 -4 28 -11z m137
-50 l15 -53 17 53 c14 41 22 52 39 52 21 0 22 -3 19 -90 -3 -70 -7 -90 -18
-90 -10 0 -14 13 -14 49 0 28 -4 53 -10 56 -5 3 -7 0 -4 -8 7 -20 -14 -97 -27
-97 -14 0 -31 51 -26 77 2 12 0 20 -4 17 -5 -3 -9 -25 -9 -50 0 -37 -3 -44
-20 -44 -19 0 -20 7 -20 90 0 88 1 90 24 90 20 0 26 -8 38 -52z m228 10 c6
-24 15 -59 21 -78 5 -19 9 -41 9 -47 0 -21 -31 -15 -37 6 -8 30 -42 34 -49 5
-4 -15 -13 -24 -26 -24 -14 0 -18 5 -14 15 3 9 13 44 21 78 22 87 22 87 44 87
15 0 23 -10 31 -42z m168 30 c15 -15 16 -90 1 -105 -8 -8 -8 -17 0 -31 15 -28
14 -32 -9 -32 -13 0 -22 9 -26 25 -3 14 -10 25 -15 25 -5 0 -9 -11 -9 -25 0
-18 -5 -25 -20 -25 -19 0 -20 7 -20 90 l0 90 43 0 c24 0 48 -5 55 -12z m170
-5 c-2 -12 -11 -17 -25 -15 -20 3 -21 -1 -19 -70 1 -62 -2 -73 -16 -76 -16 -3
-18 5 -18 72 0 68 -2 76 -19 76 -10 0 -21 7 -25 15 -4 12 6 15 60 15 57 0 65
-2 62 -17z"/>
<path d="M920 831 c0 -21 5 -31 16 -31 11 0 14 8 12 27 -4 39 -28 42 -28 4z"/>
<path d="M2472 898 c-16 -20 -42 -118 -42 -158 l0 -37 70 0 c39 0 73 4 76 9 3
5 12 4 19 -2 8 -6 24 -10 37 -8 22 3 23 6 23 97 0 78 -3 96 -17 105 -22 14
-45 -7 -52 -48 -6 -34 -16 -47 -16 -20 0 16 -2 17 -10 4 -8 -12 -10 -9 -10 11
0 45 -53 76 -78 47z m68 -78 c9 -36 20 -75 24 -87 6 -19 4 -23 -12 -23 -13 0
-22 9 -26 24 -7 29 -41 25 -49 -5 -6 -21 -37 -27 -37 -6 0 6 4 28 9 47 6 19
15 54 21 78 9 36 15 43 32 40 18 -2 25 -16 38 -68z m103 -17 c-1 -75 -4 -88
-18 -88 -14 0 -17 13 -18 88 -2 81 -1 87 18 87 19 0 20 -6 18 -87z"/>
</g>
</svg>
